<svg xmlns="http://www.w3.org/2000/svg" enable-background="new 0 0 32 32" viewBox="0 0 32 32"><path d="M13 14.5c-.827 0-1.5.673-1.5 1.5s.673 1.5 1.5 1.5 1.5-.673 1.5-1.5S13.827 14.5 13 14.5zM13 16.5c-.275 0-.5-.224-.5-.5s.225-.5.5-.5.5.224.5.5S13.275 16.5 13 16.5zM13 13.5c1.103 0 2-.897 2-2s-.897-2-2-2-2 .897-2 2S11.897 13.5 13 13.5zM13 10.5c.552 0 1 .449 1 1s-.448 1-1 1-1-.449-1-1S12.448 10.5 13 10.5zM15 20.5c0-1.103-.897-2-2-2s-2 .897-2 2 .897 2 2 2S15 21.603 15 20.5zM12 20.5c0-.551.448-1 1-1s1 .449 1 1-.448 1-1 1S12 21.051 12 20.5zM8.098 15.538c.304.171.638.258.977.258.182 0 .363-.025.543-.075.514-.145.941-.48 1.203-.946.263-.466.327-1.005.184-1.52-.145-.514-.48-.941-.946-1.203-.465-.262-1.006-.328-1.52-.183-.515.145-.942.48-1.205.946C6.794 13.777 7.137 14.998 8.098 15.538zM8.205 13.305c.131-.233.345-.401.603-.473.09-.025.181-.037.271-.037.169 0 .337.043.488.128 0 0 0 0 0 0 .233.131.401.344.473.602.072.257.04.527-.091.76s-.345.401-.603.473c-.255.07-.526.039-.759-.092C8.107 14.396 7.936 13.785 8.205 13.305zM17.902 16.462c-.467-.263-1.006-.326-1.52-.183-.514.145-.941.48-1.203.946-.263.466-.327 1.005-.184 1.52.145.514.48.942.946 1.203.304.171.638.258.978.258.181 0 .363-.025.542-.075.515-.145.942-.48 1.205-.946C19.206 18.223 18.863 17.002 17.902 16.462zM17.795 18.695c-.131.233-.345.401-.603.473-.257.07-.527.039-.76-.092-.233-.131-.401-.344-.473-.602-.072-.257-.04-.527.091-.76s.345-.401.603-.473c.089-.025.18-.037.271-.037.169 0 .337.043.488.128 0 0 0 0 0 0C17.893 17.604 18.064 18.215 17.795 18.695zM10.82 17.225c-.262-.466-.689-.801-1.203-.946-.516-.145-1.053-.079-1.52.183-.961.54-1.304 1.761-.764 2.724.262.466.689.801 1.204.946.179.05.361.075.542.075.339 0 .675-.087.978-.258.466-.262.802-.689.946-1.203C11.147 18.23 11.083 17.691 10.82 17.225zM10.04 18.475c-.071.257-.239.471-.473.602 0 0 0 0 0 0-.232.13-.503.162-.76.091-.258-.072-.472-.24-.603-.473-.27-.481-.098-1.092.383-1.362.151-.085.319-.128.488-.128.091 0 .182.012.271.037.258.072.472.24.603.473S10.112 18.218 10.04 18.475zM15.18 14.775c.262.466.689.801 1.203.946.18.05.361.075.543.075.338 0 .673-.087.977-.257.961-.54 1.304-1.761.764-2.724-.262-.466-.689-.801-1.204-.946-.515-.146-1.055-.079-1.52.183-.466.262-.802.689-.946 1.204C14.853 13.77 14.917 14.309 15.18 14.775zM15.96 13.525c.071-.257.239-.471.473-.602.151-.085.319-.128.488-.128.091 0 .182.012.271.037.258.072.472.24.603.473.27.481.098 1.092-.383 1.362 0 0 0 0 0 0-.233.13-.505.162-.759.091-.258-.072-.472-.24-.603-.473S15.888 13.782 15.96 13.525z"/><path d="M27,7.5c-1.93,0-3.5,1.57-3.5,3.5v3v3v1c0,3.033-2.468,5.5-5.5,5.5h-1.009c2.68-1.432,4.509-4.255,4.509-7.5 c0-4.687-3.813-8.5-8.5-8.5S4.5,11.313,4.5,16s3.813,8.5,8.5,8.5c0.135,0,0.266-0.014,0.4-0.02c0.034,0.007,0.065,0.02,0.1,0.02H18 c3.584,0,6.5-2.916,6.5-6.5v-1v-3v-3c0-1.378,1.121-2.5,2.5-2.5c0.276,0,0.5-0.224,0.5-0.5S27.276,7.5,27,7.5z M5.5,16 c0-4.136,3.364-7.5,7.5-7.5s7.5,3.364,7.5,7.5s-3.364,7.5-7.5,7.5S5.5,20.136,5.5,16z"/></svg>